Coordinates
version=1
nRows=17
nColumns=40
inDegrees=yes

Units are S.I. units (second, meters, Newtons, ...)
Angles are in degrees.

endheader
time	pelvis_tilt	pelvis_list	pelvis_rotation	pelvis_tx	pelvis_ty	pelvis_tz	hip_flexion_r	hip_adduction_r	hip_rotation_r	knee_angle_r	knee_angle_r_beta	ankle_angle_r	subtalar_angle_r	mtp_angle_r	hip_flexion_l	hip_adduction_l	hip_rotation_l	knee_angle_l	knee_angle_l_beta	ankle_angle_l	subtalar_angle_l	mtp_angle_l	lumbar_extension	lumbar_bending	lumbar_rotation	arm_flex_r	arm_add_r	arm_rot_r	elbow_flex_r	pro_sup_r	wrist_flex_r	wrist_dev_r	arm_flex_l	arm_add_l	arm_rot_l	elbow_flex_l	pro_sup_l	wrist_flex_l	wrist_dev_l
     31.32314286	     -4.64347646	     -4.57816554	     -2.39113946	      0.72380348	      0.93088033	      0.42283022	     34.30948876	     -5.95736709	     -9.01213622	     61.18040548	     61.18040548	     -2.69663829	    -17.95238722	      5.71830780	     12.05895304	     -4.92240584	     -7.42288268	     21.04149215	     21.04149215	     14.93721526	    -12.23432586	      0.64614455	    -10.45813109	      5.09080126	      1.80318859	      4.12561776	    -14.94740906	     -8.27742706	     26.21352724	     47.19117414	      0.00000000	      0.00000000	      5.14028369	    -15.42445762	    -22.46386203	    105.23448842	     48.95198268	      0.00000000	      0.00000000
     31.33628571	     -4.51601675	     -4.65088934	     -2.71313117	      0.72400783	      0.93185335	      0.42310840	     34.36159860	     -5.33847038	     -8.99358260	     57.77367620	     57.77367620	     -2.18438502	    -17.42358074	      5.19205252	     10.91555040	     -5.01351543	     -8.03224334	     20.17777247	     20.17777247	     15.08434942	    -11.60542252	      0.62888226	    -10.95361660	      5.10461317	      2.37675683	      2.46339443	    -15.56829756	     -8.73782650	     25.45232740	     47.23850384	      0.00000000	      0.00000000	      6.16688608	    -15.19257948	    -23.23838400	    109.03728070	     49.09157452	      0.00000000	      0.00000000
     31.34942857	     -4.86806970	     -4.60356422	     -2.99730783	      0.72397369	      0.93190846	      0.42358019	     34.83777266	     -4.87911757	     -9.05075121	     54.08581466	     54.08581466	     -1.53994259	    -16.54368317	      5.00502203	     10.46375402	     -4.98607622	     -8.42652088	     19.56316859	     19.56316859	     15.19986831	    -11.28287878	      0.63577417	    -10.73195280	      5.09793458	      2.36820992	      1.09006476	    -15.91509265	     -8.98352228	     24.96034195	     47.26347454	      0.00000000	      0.00000000	      6.95499324	    -16.08710870	    -24.01764694	    110.71385563	     49.18112444	      0.00000000	      0.00000000
     31.36257143	     -4.73399921	     -4.44472592	     -3.36642958	      0.72452958	      0.93255828	      0.42426879	     34.39651739	     -4.48818645	     -9.06849502	     49.65585200	     49.65585200	     -2.04284931	    -15.93129969	      1.34042566	      9.26190449	     -4.86963597	     -9.30987854	     18.66236432	     18.66236432	     15.42125257	    -10.23742847	      0.36185386	    -11.28132555	      4.78932749	      1.68244908	      0.37658998	    -15.96411932	    -10.98669146	     24.82653700	     47.39583854	      0.00000000	      0.00000000	      6.39567045	    -16.15331384	    -26.28370807	    116.08122605	     49.46533927	      0.00000000	      0.00000000
     31.37571429	     -4.71308318	     -4.22761442	     -3.73513062	      0.72512488	      0.93304406	      0.42516174	     33.97416249	     -4.12058599	     -9.07870201	     45.07755069	     45.07755069	     -1.52318891	    -14.62457693	      0.65037261	      8.12127188	     -4.60089232	     -9.87765375	     17.59729423	     17.59729423	     15.48651480	     -9.79427512	      0.58097302	    -11.51884053	      4.48060298	      2.02109691	     -0.87796689	    -16.24838743	    -11.48437576	     24.13275175	     47.44616051	      0.00000000	      0.00000000	      7.37121641	    -16.34993852	    -26.97977088	    118.02184593	     49.56736551	      0.00000000	      0.00000000
     31.38885714	     -4.82673936	     -3.88738627	     -4.10874872	      0.72584518	      0.93306258	      0.42616196	     33.51105265	     -3.88828575	     -9.16680259	     40.21219532	     40.21219532	     -1.24661498	    -13.03624977	     -0.46040165	      7.18902012	     -4.21792154	    -10.47539603	     16.65374893	     16.65374893	     15.64505009	     -9.18976588	      0.75519886	    -11.56691801	      4.10949898	      2.14553795	     -2.05930889	    -16.35660054	    -12.24865252	     23.80658634	     47.49920230	      0.00000000	      0.00000000	      7.94678903	    -16.80295559	    -27.71678819	    120.31388940	     49.68427382	      0.00000000	      0.00000000
     31.40200000	     -4.84176185	     -3.56063884	     -4.49835817	      0.72683547	      0.93300402	      0.42735432	     32.71939092	     -3.61209789	     -9.36254422	     35.10407873	     35.10407873	     -0.92833011	    -11.10033447	     -1.04041885	      6.16906713	     -3.84460253	    -11.10729196	     15.78330425	     15.78330425	     15.84974762	     -8.67297829	      0.93527600	    -11.67158432	      3.69560213	      2.24765978	     -3.14898397	    -16.42584969	    -12.85932317	     23.62002014	     47.53684712	      0.00000000	      0.00000000	      8.45356561	    -17.14325969	    -28.29496631	    122.17942961	     49.77981441	      0.00000000	      0.00000000
     31.41514286	     -4.90029144	     -3.15813795	     -4.79722534	      0.72802157	      0.93256133	      0.42858866	     31.82560936	     -3.45432096	     -9.75720495	     29.95360796	     29.95360796	     -0.73865446	     -8.78995976	     -1.68606889	      5.20674398	     -3.39241386	    -11.71393593	     14.91880054	     14.91880054	     16.10437609	     -7.93841675	      1.17937842	    -11.68502341	      3.21421341	      2.30296362	     -4.28473087	    -16.42373523	    -13.73208666	     23.65309434	     47.57979477	      0.00000000	      0.00000000	      8.87371456	    -17.50526725	    -28.88061920	    124.11993539	     49.88576113	      0.00000000	      0.00000000
     31.42828571	     -4.91445766	     -2.81920976	     -5.07293050	      0.72948765	      0.93190042	      0.42993567	     30.71303839	     -3.19035673	    -10.22036658	     24.82717980	     24.82717980	     -0.47499583	     -6.23543436	     -1.43806886	      4.22635279	     -3.00025571	    -12.23753959	     14.15148669	     14.15148669	     16.45083909	     -7.32061448	      1.32483203	    -11.70183895	      2.81354126	      2.40865119	     -5.32699920	    -16.36290219	    -14.45469722	     23.67624614	     47.61158026	      0.00000000	      0.00000000	      9.28758755	    -17.76747465	    -29.22073746	    125.58631193	     49.96455932	      0.00000000	      0.00000000
     31.44142857	     -4.91563533	     -2.52547313	     -5.25710988	      0.73114984	      0.93091202	      0.43131642	     29.54110811	     -2.88017355	    -10.71429533	     20.03484155	     20.03484155	     -0.23926241	     -3.72505738	     -0.46512243	      3.30173304	     -2.66043552	    -12.61958055	     13.51801361	     13.51801361	     16.76818605	     -6.83008796	      1.32294971	    -11.65079111	      2.48683329	      2.49232297	     -6.27688942	    -16.29835947	    -14.89228701	     23.62539308	     47.62950110	      0.00000000	      0.00000000	      9.64074305	    -17.97376327	    -29.38496481	    126.70589615	     50.01681087	      0.00000000	      0.00000000
     31.45457143	     -4.95310491	     -2.22280866	     -5.35073844	      0.73298113	      0.92955827	      0.43270003	     28.50305223	     -2.63832920	    -11.30161398	     15.90182186	     15.90182186	     -0.06599640	     -1.25239125	      0.79539443	      2.44707964	     -2.31781695	    -12.91755343	     12.94412534	     12.94412534	     17.10609518	     -6.31218601	      1.21555842	    -11.54529429	      2.18102022	      2.52638325	     -7.17109444	    -16.19138906	    -15.23900210	     23.59284730	     47.64141148	      0.00000000	      0.00000000	      9.94220755	    -18.11791520	    -29.45752134	    127.66791803	     50.05674992	      0.00000000	      0.00000000
     31.46771429	     -5.00994452	     -1.97517175	     -5.41286213	      0.73496823	      0.92791270	      0.43415383	     27.65023974	     -2.40603050	    -11.98678009	     12.63609673	     12.63609673	      0.13893245	      1.10069445	      2.16933826	      1.64879990	     -2.05123895	    -13.18483510	     12.46204830	     12.46204830	     17.48225923	     -5.81740719	      1.02247243	    -11.33850986	      1.91879284	      2.56020947	     -7.92515474	    -16.00626119	    -15.55502747	     23.63229044	     47.64885982	      0.00000000	      0.00000000	     10.14591910	    -18.16703253	    -29.43828528	    128.42421222	     50.08484567	      0.00000000	      0.00000000
     31.48085714	     -5.06650841	     -1.82289374	     -5.36145402	      0.73698243	      0.92620256	      0.43544562	     27.19628349	     -2.32259063	    -13.16831186	     10.83182210	     10.83182210	      1.68386556	      3.99084088	      6.93153658	      0.97319210	     -1.94984424	    -13.51449876	     12.23047842	     12.23047842	     17.92156421	     -5.07371632	      0.56673885	    -11.14720269	      1.84910996	      2.81676439	     -9.05563893	    -15.65336031	    -17.44389835	     24.57994141	     47.67995694	      0.00000000	      0.00000000	     10.41983480	    -18.00313019	    -28.91420365	    128.71591755	     50.13996349	      0.00000000	      0.00000000
     31.49400000	     -5.20120904	     -1.73789011	     -5.26541822	      0.73907601	      0.92430951	      0.43689601	     26.74088519	     -2.05946056	    -13.58143745	      9.25986907	      9.25986907	      1.42324608	      4.98805395	      7.28129090	      0.39338480	     -1.89912722	    -13.47975129	     12.01355931	     12.01355931	     18.30361558	     -4.87399212	      0.35276382	    -10.81666876	      1.84128236	      2.74382003	     -9.46087262	    -15.47738239	    -17.57690141	     24.45094965	     47.68263313	      0.00000000	      0.00000000	     10.31362951	    -17.81586056	    -28.77663163	    128.86490757	     50.14012058	      0.00000000	      0.00000000
     31.50714286	     -5.32657449	     -1.76976432	     -5.04819767	      0.74120543	      0.92241069	      0.43838839	     26.54137358	     -1.83108538	    -13.94635130	      8.75315763	      8.75315763	      1.25300513	      5.43132842	      7.30455488	     -0.11582347	     -2.01669554	    -13.27647805	     11.96062813	     11.96062813	     18.72882545	     -4.70692957	      0.12152296	    -10.50551849	      1.95828006	      2.54801393	     -9.75422525	    -15.22542002	    -17.62830942	     24.35869341	     47.68279639	      0.00000000	      0.00000000	     10.04879289	    -17.53386960	    -28.61581605	    128.78986707	     50.12929020	      0.00000000	      0.00000000
     31.52028571	     -5.39385211	     -1.97310845	     -4.87262343	      0.74347716	      0.92079635	      0.43997488	     26.10808091	     -1.47805151	    -14.67335618	      8.36792328	      8.36792328	      0.62421739	      6.43970728	      6.55165620	     -0.64986042	     -2.36945171	    -13.32378212	     12.04469749	     12.04469749	     19.14222312	     -4.33500083	     -0.34394011	    -10.27453461	      2.33471496	      2.43372080	     -9.81383349	    -15.11639668	    -17.82881329	     24.38839378	     47.68220997	      0.00000000	      0.00000000	      9.61389531	    -17.20798725	    -28.20149129	    128.21233414	     50.09990207	      0.00000000	      0.00000000
     31.53342857	     -5.51355288	     -2.16218774	     -4.64378667	      0.74575824	      0.91909039	      0.44168800	     26.12318147	     -1.23958264	    -14.89615315	      9.05305977	      9.05305977	      0.15739824	      6.26875838	      5.49279700	     -1.04958859	     -2.73703094	    -13.16049940	     12.26423284	     12.26423284	     19.56220870	     -4.16119796	     -0.68596080	     -9.96224086	      2.65576898	      2.23616199	     -9.76215354	    -14.95748096	    -17.93425810	     24.44269815	     47.67789095	      0.00000000	      0.00000000	      9.04211865	    -16.75145082	    -27.82698494	    127.48732832	     50.06375941	      0.00000000	      0.00000000
